{"title":"Elementary S02E22 HDTV x264 AAC [GWC].mp4","uid":10081293,"size":114090967,"categoryP":"video","categoryS":"tv_shows","magnet":"?xt=urn:btih:6932d9a3fb554e25efc0a8d3d141a6f13c7d0a47&amp;dn=Elementary+S02E22+HDTV+x264+AAC+%5BGWC%5D.mp4&amp;tr=udp%3A%2F%2Ftracker.openbittorrent.com%3A80&amp;tr=udp%3A%2F%2Fopen.demonii.com%3A1337&amp;tr=udp%3A%2F%2Ftracker.coppersurfer.tk%3A6969&amp;tr=udp%3A%2F%2Fexodus.desync.com%3A6969","seeders":2,"leechers":0,"uploader":"canc232","files":1,"time":1399007804,"description":"Elementary S02E22 HDTV x264 AAC [GWC] \n\n\nSTORYLINE :\nA modern take on the cases of Sherlock Holmes, with the detective now living in New York City.\n\n\n\nSCREENS : &lt;a href=&quot;\nhttp://i.imgur.com/poLJqXr.jpg&quot; rel=&quot;nofollow&quot; target=&quot;_NEW&quot;&gt;\nhttp://i.imgur.com/poLJqXr.jpg&lt;/a&gt; &lt;a href=&quot;\nhttp://i.imgur.com/2JeL0nQ.jpg&quot; rel=&quot;nofollow&quot; target=&quot;_NEW&quot;&gt;\nhttp://i.imgur.com/2JeL0nQ.jpg&lt;/a&gt; &lt;a href=&quot;\nhttp://i.imgur.com/RMrgHEJ.jpg&quot; rel=&quot;nofollow&quot; target=&quot;_NEW&quot;&gt;\nhttp://i.imgur.com/RMrgHEJ.jpg&lt;/a&gt;\n\n\nMEDIA INFO :\nGeneral \nFormat : MPEG-4 \nFormat profile : Base Media \nFile size : 109 MiB \nDuration : 43mn 30s \nOverall bit rate mode : Variable \nOverall bit rate : 350 Kbps \n\nVideo \nFormat : AVC \nFormat profile : &lt;a class=&quot;__cf_email__&quot; href=&quot;/cdn-cgi/l/email-protection&quot; data-cfemail=&quot;0f476668674f433c213f&quot;&gt;[email&amp;#160;protected]&lt;/a&gt;&lt;script cf-hash='f9e31' type=&quot;text/javascript&quot;&gt;\n/* &lt;![CDATA[ */!function(){try{var t=&quot;currentScript&quot;in document?document.currentScript:function(){for(var t=document.getElementsByTagName(&quot;script&quot;),e=t.length;e--;)if(t[e].getAttribute(&quot;cf-hash&quot;))return t[e]}();if(t&amp;&amp;t.previousSibling){var e,r,n,i,c=t.previousSibling,a=c.getAttribute(&quot;data-cfemail&quot;);if(a){for(e=&quot;&quot;,r=parseInt(a.substr(0,2),16),n=2;a.length-n;n+=2)i=parseInt(a.substr(n,2),16)^r,e+=String.fromCharCode(i);e=document.createTextNode(e),c.parentNode.replaceChild(e,c)}}}catch(u){}}();/* ]]&gt; */&lt;/script&gt; \nFormat settings, CABAC : Yes \nFormat settings, ReFrames : 4 frames \nDuration : 43mn 29s \nBit rate : 287 Kbps \nMaximum bit rate : 2 301 Kbps \nWidth : 720 pixels \nHeight : 404 pixels \nDisplay aspect ratio : 16:9 \nFrame rate mode : Constant \nFrame rate : 23.976 fps \nStream size : 89.2 MiB (82%) \nTitle : Elementary S02E22 HDTV x264 AAC [GWC] \nWriting library : x264 core\n\nAudio \nFormat : AAC \nFormat profile : HE-AAC / LC \nDuration : 43mn 30s \nBit rate mode : Variable \nChannel(s) : 2 channels \nSampling rate : 48.0 KHz / 24.0 KHz \nStream size : 18.6 MiB (17%) \nLanguage : English \n\n","torrent":{"xt":"urn:btih:6932d9a3fb554e25efc0a8d3d141a6f13c7d0a47","amp;dn":"Elementary+S02E22+HDTV+x264+AAC+%5BGWC%5D.mp4","amp;tr":["udp%3A%2F%2Ftracker.openbittorrent.com%3A80","udp%3A%2F%2Fopen.demonii.com%3A1337","udp%3A%2F%2Ftracker.coppersurfer.tk%3A6969","udp%3A%2F%2Fexodus.desync.com%3A6969"],"infoHash":"6932d9a3fb554e25efc0a8d3d141a6f13c7d0a47","infoHashBuffer":{"type":"Buffer","data":[105,50,217,163,251,85,78,37,239,192,168,211,209,65,166,241,60,125,10,71]},"announce":[],"urlList":[]}}